<?xml version="1.0" encoding="UTF-8" standalone="no"?>
<!-- Created with Inkscape (http://www.inkscape.org/) -->

<svg
   width="2000"
   height="500"
   viewBox="0 0 529.16664 132.29167"
   version="1.1"
   id="svg5"
   xml:space="preserve"
   inkscape:version="1.2.1 (9c6d41e410, 2022-07-14)"
   sodipodi:docname="header.svg"
   xmlns:inkscape="http://www.inkscape.org/namespaces/inkscape"
   xmlns:sodipodi="http://sodipodi.sourceforge.net/DTD/sodipodi-0.dtd"
   xmlns:xlink="http://www.w3.org/1999/xlink"
   xmlns="http://www.w3.org/2000/svg"
   xmlns:svg="http://www.w3.org/2000/svg"><sodipodi:namedview
     id="namedview7"
     pagecolor="#ffffff"
     bordercolor="#eeeeee"
     borderopacity="1"
     inkscape:showpageshadow="0"
     inkscape:pageopacity="0"
     inkscape:pagecheckerboard="0"
     inkscape:deskcolor="#505050"
     inkscape:document-units="mm"
     showgrid="false"
     showguides="false"
     inkscape:zoom="0.914906"
     inkscape:cx="982.6146"
     inkscape:cy="254.12447"
     inkscape:window-width="2526"
     inkscape:window-height="1336"
     inkscape:window-x="9"
     inkscape:window-y="16"
     inkscape:window-maximized="0"
     inkscape:current-layer="g2507" /><defs
     id="defs2"><rect
       x="592.79413"
       y="173.1237"
       width="718.77252"
       height="183.94394"
       id="rect386" /><linearGradient
       inkscape:collect="always"
       id="linearGradient1306"><stop
         style="stop-color:#453c94;stop-opacity:1;"
         offset="0"
         id="stop1302" /><stop
         style="stop-color:#574bba;stop-opacity:1;"
         offset="0.71370733"
         id="stop19060" /><stop
         style="stop-color:#dd4dc2;stop-opacity:1;"
         offset="1"
         id="stop1304" /></linearGradient><linearGradient
       inkscape:collect="always"
       xlink:href="#linearGradient1306"
       id="linearGradient1308"
       x1="-30.790615"
       y1="82.155998"
       x2="459.49887"
       y2="385.50085"
       gradientUnits="userSpaceOnUse" /></defs><g
     inkscape:label="Layer 1"
     inkscape:groupmode="layer"
     id="layer1"><g
       id="g2507"
       transform="translate(29.497566,0.26458144)"><g
         inkscape:label="Layer 1"
         id="layer1-8"
         transform="matrix(0.26405311,0,0,0.26405311,0.13255678,0.13255678)"><circle
           style="fill:url(#linearGradient1308);fill-opacity:1;stroke-width:0.385589"
           id="path589"
           r="249.5"
           cy="250"
           cx="250" /><rect
           style="fill:#fa5186;fill-opacity:1;fill-rule:nonzero;stroke-width:0.370336"
           id="rect9564"
           width="196.0089"
           height="196.0089"
           x="151.24219"
           y="95.417732" /><g
           id="g600"
           transform="matrix(1.2127582,0,0,1.2127582,-617.90028,34.244575)"><path
             style="fill:#ffffff;stroke:none;stroke-width:0.394458"
             d="m 644.02686,32.62877 h 15.77834 c 0,-4.54475 1.76798,-13.84277 -0.73289,-17.72901 -2.12337,-3.29984 -12.71144,-3.2044 -14.52556,0.38014 -2.14309,4.2342 -0.51989,12.64038 -0.51989,17.34887 m 31.5567,0 h 15.77835 c 0,-4.70849 1.6232,-13.11467 -0.5199,-17.34887 -1.81411,-3.58454 -12.40217,-3.67995 -14.52555,-0.38014 -2.50086,3.88624 -0.7329,13.18426 -0.7329,17.72901 m 31.5567,0 h 15.77836 c 0,-4.67508 1.63739,-13.17053 -0.57473,-17.33913 -1.96835,-3.70958 -12.66056,-3.70958 -14.6289,0 -2.21212,4.16857 -0.57473,12.66405 -0.57473,17.33913 m 31.5567,0 h 15.77835 c 0,-4.67508 1.6374,-13.17053 -0.57472,-17.33913 -1.96836,-3.70958 -12.66055,-3.70958 -14.6289,0 -2.21213,4.16857 -0.57473,12.66405 -0.57473,17.33913 m 31.55671,0 h 15.77835 c 0,-4.67508 1.6374,-13.17053 -0.57473,-17.33913 -1.96835,-3.70958 -12.66054,-3.70958 -14.6289,0 -2.21212,4.16857 -0.57472,12.66405 -0.57472,17.33913 m -128.1991,12.006942 c -17.02748,2.68018 -13.80606,21.874723 -13.80606,34.539213 v 95.064535 22.0897 c 0,5.4735 -0.28634,10.72493 3.12707,15.38349 4.60511,6.2853 11.54364,6.31174 18.56816,6.31174 h 20.51185 79.28621 25.24538 c 4.48459,0 9.39561,0.55776 13.80604,-0.31872 16.38898,-3.25744 13.01714,-22.36937 13.01714,-34.78812 V 87.458555 65.763315 c 0,-5.22855 0.10541,-10.65749 -3.34461,-14.98943 -8.21145,-10.310325 -27.95174,-6.311353 -39.65139,-6.311353 h -78.10284 c -12.44596,0 -26.37154,-1.76058 -38.65695,0.17318 m -25.63982,31.383533 v -15.77834 c -4.62153,0 -13.22479,-1.66423 -17.35011,0.46506 -3.72211,1.92141 -3.7221,12.9268 0,14.84822 4.12532,2.12929 12.72858,0.46506 17.35011,0.46506 m 92.69781,67.057965 c -4.05148,0 -10.59043,-1.23861 -14.20012,0.82442 -4.59663,2.6267 -4.18995,8.60629 0.78852,10.5565 3.7592,1.47251 9.41179,0.45285 13.4116,0.45285 v 45.36276 c -4.28816,1.17036 -8.08088,2.35925 -12.62269,1.90484 -10.17939,-1.0177 -19.14347,-9.50212 -20.51185,-19.65548 3.32647,-0.14283 7.84815,-0.69543 10.61369,-2.70323 3.56355,-2.58804 3.332,-7.21386 -0.35934,-9.52698 -3.11544,-1.95297 -6.50779,0.30965 -9.8599,0.39051 -8.07929,0.19565 -15.66,-5.42972 -16.49981,-13.80014 -0.51555,-5.13546 1.22519,-10.2433 5.0621,-13.76503 3.23259,-2.96673 11.15293,-5.21316 7.67734,-11.07049 -3.47991,-5.8644 -10.12496,-1.70011 -13.99027,1.37114 -1.13722,0.90332 -2.70796,3.17619 -4.33904,2.98369 -2.44012,-0.28795 -4.94375,-4.46093 -6.13936,-6.3425 -4.8546,-7.63908 -5.3599,-17.33251 -1.96519,-25.63982 4.17337,-10.213325 14.65611,-16.567245 25.46073,-16.567245 4.63056,0 11.95328,3.89135 15.64858,0.26035 7.60714,-7.47579 -6.10031,-10.20267 -10.52061,-11.69965 3.66688,-9.45202 11.69886,-16.16966 22.08968,-16.1728 2.43225,-7.9e-4 9.22087,-0.16686 10.13049,2.84995 0.68361,2.26578 0.12539,5.44116 0.12539,7.80043 v 16.96172 55.224205 m 44.17937,-66.663505 c -4.43015,1.50012 -18.11473,4.23688 -10.5206,11.69965 3.59628,3.53356 12.13907,-0.28283 16.83195,-0.25994 10.88666,0.0525 20.59982,7.42842 24.61265,17.355755 3.28309,8.12229 2.28944,17.91868 -2.46971,25.24536 -1.1029,1.69775 -4.01243,6.20444 -6.29753,6.17486 -1.34235,-0.0173 -3.03615,-2.24447 -4.01164,-3.04917 -4.00653,-3.30557 -10.61765,-7.37796 -14.16502,-1.15301 -3.10479,5.44787 4.45778,7.68918 7.45883,10.32851 4.30392,3.78523 6.06085,8.87533 5.45417,14.52201 -0.91909,8.55502 -8.85796,13.60527 -16.8931,13.40567 -3.07598,-0.0762 -6.14131,-2.21645 -9.07096,-0.61811 -3.72173,2.03067 -4.50078,6.62179 -1.11199,9.38537 2.84642,2.32099 7.43595,2.79355 10.97188,3.07244 -0.88794,10.1715 -10.63855,18.66854 -20.51186,19.65548 -4.5418,0.45441 -8.33451,-0.73448 -12.62268,-1.90484 v -72.97488 c 3.99982,0 9.6524,1.01967 13.41159,-0.45284 4.97847,-1.9502 5.38517,-7.92981 0.78854,-10.55651 -3.60971,-2.06301 -10.14864,-0.82442 -14.20013,-0.82442 V 77.991545 c 0,-3.9726 -1.49974,-11.65626 0.23785,-15.21902 1.27214,-2.60736 7.22136,-2.53083 9.62361,-2.53162 10.33798,-0.003 19.1352,6.33815 22.48415,16.1728 m 60.3522,-16.1728 v 15.77834 c 4.67512,0 13.17059,1.63741 17.33922,-0.57473 3.70949,-1.96835 3.70949,-12.66054 0,-14.62889 -4.16863,-2.21213 -12.6641,-0.57472 -17.33922,-0.57472 M 616.41469,107.57592 V 91.797595 c -4.62153,0 -13.22479,-1.66421 -17.35011,0.46506 -3.72211,1.92139 -3.7221,12.926795 0,14.848195 4.12532,2.12928 12.72858,0.46507 17.35011,0.46507 M 813.64407,91.797595 v 15.778325 c 4.67512,0 13.17059,1.63739 17.33922,-0.57473 3.70949,-1.96834 3.70949,-12.660545 0,-14.628885 -4.16863,-2.2121 -12.6641,-0.57471 -17.33922,-0.57471 M 616.41469,139.13262 v -15.77835 c -4.62153,0 -13.22479,-1.66423 -17.35011,0.46506 -3.72211,1.92142 -3.7221,12.92681 0,14.84822 4.12532,2.12929 12.72858,0.46507 17.35011,0.46507 m 197.22944,-15.77835 v 15.77835 c 4.67512,0 13.17059,1.6374 17.33922,-0.57472 3.70949,-1.96836 3.70949,-12.66055 0,-14.6289 -4.16863,-2.21214 -12.6641,-0.57473 -17.33922,-0.57473 m -197.22938,47.33505 v -15.77834 c -4.62153,0 -13.22479,-1.66423 -17.35011,0.46506 -3.72211,1.92141 -3.72211,12.92681 0,14.84822 4.12532,2.12929 12.72858,0.46506 17.35011,0.46506 m 197.22938,-15.77834 v 15.77834 c 4.70865,0 13.11456,1.6232 17.34909,-0.51989 3.58445,-1.81412 3.67989,-12.40219 0.37986,-14.52556 -3.8862,-2.50087 -13.184,-0.73289 -17.72895,-0.73289 m -197.22938,47.33506 v -15.77836 c -4.62153,0 -13.22479,-1.66421 -17.35011,0.46508 -3.72211,1.9214 -3.72211,12.9268 0,14.8482 4.12532,2.12929 12.72858,0.46508 17.35011,0.46508 m 197.22938,-15.77836 v 15.77836 c 4.54495,0 13.84275,1.76796 17.72895,-0.73291 3.30003,-2.12377 3.20459,-12.71144 -0.37986,-14.52556 -4.23453,-2.14309 -12.64044,-0.51989 -17.34909,-0.51989 m -169.61727,43.39047 c 0,4.62148 -1.66423,13.22462 0.46507,17.35027 1.9214,3.7221 12.92681,3.7221 14.84821,0 2.12929,-4.12565 0.46506,-12.72879 0.46506,-17.35027 h -15.77834 m 31.5567,0 c 0,4.62148 -1.66422,13.22462 0.46507,17.35027 1.92141,3.7221 12.9268,3.7221 14.84822,0 2.12929,-4.12565 0.46506,-12.72879 0.46506,-17.35027 h -15.77835 m 31.5567,0 c 0,4.62148 -1.66421,13.22462 0.46507,17.35027 1.9214,3.7221 12.92681,3.7221 14.84821,0 2.12929,-4.12565 0.46508,-12.72879 0.46508,-17.35027 h -15.77836 m 31.5567,0 c 0,4.62148 -1.66422,13.22462 0.46506,17.35027 1.92142,3.7221 12.92681,3.7221 14.84823,0 2.12929,-4.12565 0.46506,-12.72879 0.46506,-17.35027 h -15.77835 m 31.55671,0 c 0,4.62148 -1.66423,13.22462 0.46506,17.35027 1.92142,3.7221 12.92681,3.7221 14.84823,0 2.12928,-4.12565 0.46506,-12.72879 0.46506,-17.35027 z"
             id="path271" /><path
             style="fill:#ffffff;stroke-width:0.240113"
             d="m 706.28034,360.41534 c -1.52692,-0.27599 -2.5797,-1.99697 -2.26194,-3.69756 0.31255,-1.67274 1.33193,-2.92843 6.3703,-7.84714 2.66026,-2.597 8.28626,-8.10689 12.50231,-12.24411 4.21606,-4.13721 8.5871,-8.40439 9.71343,-9.48261 l 2.04792,-1.96036 2.62983,2.65187 2.62981,2.65189 -5.30792,5.21022 c -21.30723,20.91492 -23.81479,23.33022 -24.84422,23.93001 -1.19989,0.6991 -2.42943,0.97745 -3.4793,0.78766 z m 54.73077,-32.47542 c -2.89011,-0.0658 -5.90491,-0.98681 -9.35833,-2.85905 -7.04798,-3.821 -12.49678,-10.8521 -13.89269,-17.92711 -1.27415,-6.45757 2.05761,-13.77404 9.64742,-21.18572 4.73455,-4.62343 9.64818,-8.04257 15.92976,-11.08469 3.52627,-1.70774 3.6501,-1.78904 5.67015,-3.72312 l 2.06515,-1.97725 12.56047,12.66838 c 6.90803,6.9678 12.54416,12.7556 12.52422,12.86226 -0.02,0.10667 -0.6732,0.82587 -1.45171,1.5982 -2.06847,2.05216 -2.45641,2.61768 -4.24471,6.18936 -2.97421,5.9402 -6.40332,10.81701 -10.76905,15.31551 -6.61076,6.8118 -12.96165,10.25341 -18.68071,10.12325 z m 30.59097,-53.71514 -12.51913,-12.6266 2.32044,-2.32141 c 1.27667,-1.27634 3.31147,-3.2407 4.52272,-4.36429 l 2.20228,-2.04288 12.43526,12.51841 c 6.83939,6.88512 12.4215,12.59177 12.40477,12.68137 -0.0285,0.15223 -8.62716,8.74276 -8.77808,8.76966 -0.0379,0.007 -5.70281,-5.66962 -12.5883,-12.6143 z m 16.72096,-16.49387 c -7.13284,-7.19429 -12.95288,-13.16663 -12.93316,-13.27218 0.0951,-0.50883 3.4551,-6.63227 4.78479,-8.72 l 1.50319,-2.36014 15.37063,15.49365 c 14.71474,14.83277 15.34684,15.51332 14.81193,15.95557 -1.41783,1.17226 -9.50576,5.79374 -10.42725,5.95819 -0.0777,0.0138 -5.97724,-5.86089 -13.11019,-13.05504 z m 16.3017,-16.62665 -15.96479,-16.10103 1.63417,-1.34115 c 2.32944,-1.91176 3.84181,-2.899 6.1517,-4.01571 5.2382,-2.53236 9.737,-2.50833 14.52655,0.0777 7.24871,3.91367 15.53446,13.46159 16.93335,19.51281 0.41411,1.79138 0.40652,1.98035 -0.20894,5.27483 -0.61572,3.29517 -0.68041,3.49336 -1.81707,5.56383 -1.18611,2.16058 -3.71133,5.69282 -4.73763,6.62689 -0.53491,0.48683 -1.06303,-0.0119 -16.51734,-15.59812 z m 22.72385,-22.33033 -2.55525,-2.58719 8.92628,-8.75283 c 4.9094,-4.81411 12.24605,-12.01264 16.30357,-15.99679 11.76121,-11.54858 11.79661,-11.57946 13.71696,-11.96745 2.44462,-0.49389 4.34102,1.29287 3.89658,3.67141 -0.3104,1.66122 -1.33737,2.93344 -6.23007,7.71792 -2.58312,2.52598 -10.59491,10.36974 -17.80398,17.43058 -7.20902,7.06089 -13.24046,12.89048 -13.4031,12.95474 -0.16264,0.0643 -1.44558,-1.04741 -2.85096,-2.47035 z"
             id="path531"
             inkscape:transform-center-x="-0.81450264"
             inkscape:transform-center-y="-1.1860964" /><path
             style="fill:#ffffff;stroke-width:0.240113"
             d="m 725.00296,360.41534 c 1.52692,-0.27599 2.5797,-1.99697 2.26194,-3.69756 -0.31255,-1.67274 -1.33193,-2.92843 -6.3703,-7.84714 -2.66026,-2.597 -8.28626,-8.10689 -12.50231,-12.24411 -4.21606,-4.13721 -8.5871,-8.40439 -9.71343,-9.48261 l -2.04792,-1.96036 -2.62983,2.65187 -2.62981,2.65189 5.30792,5.21022 c 21.30723,20.91492 23.81479,23.33022 24.84422,23.93001 1.19989,0.6991 2.42943,0.97745 3.4793,0.78766 z m -54.73077,-32.47542 c 2.89011,-0.0658 5.90491,-0.98681 9.35833,-2.85905 7.04798,-3.821 12.49678,-10.8521 13.89269,-17.92711 1.27415,-6.45757 -2.05761,-13.77404 -9.64742,-21.18572 -4.73455,-4.62343 -9.64818,-8.04257 -15.92976,-11.08469 -3.52627,-1.70774 -3.6501,-1.78904 -5.67015,-3.72312 l -2.06515,-1.97725 -12.56047,12.66838 c -6.90803,6.9678 -12.54416,12.7556 -12.52422,12.86226 0.02,0.10667 0.6732,0.82587 1.45171,1.5982 2.06847,2.05216 2.45641,2.61768 4.24471,6.18936 2.97421,5.9402 6.40332,10.81701 10.76905,15.31551 6.61076,6.8118 12.96165,10.25341 18.68071,10.12325 z m -30.59097,-53.71514 12.51913,-12.6266 -2.32044,-2.32141 c -1.27667,-1.27634 -3.31147,-3.2407 -4.52272,-4.36429 l -2.20228,-2.04288 -12.43526,12.51841 c -6.83939,6.88512 -12.4215,12.59177 -12.40477,12.68137 0.0285,0.15223 8.62716,8.74276 8.77808,8.76966 0.0379,0.007 5.70281,-5.66962 12.5883,-12.6143 z m -16.72096,-16.49387 c 7.13284,-7.19429 12.95288,-13.16663 12.93316,-13.27218 -0.0951,-0.50883 -3.4551,-6.63227 -4.78479,-8.72 l -1.50319,-2.36014 -15.37063,15.49365 c -14.71474,14.83277 -15.34684,15.51332 -14.81193,15.95557 1.41783,1.17226 9.50576,5.79374 10.42725,5.95819 0.0777,0.0138 5.97724,-5.86089 13.11019,-13.05504 z m -16.3017,-16.62665 15.96479,-16.10103 -1.63417,-1.34115 c -2.32944,-1.91176 -3.84181,-2.899 -6.1517,-4.01571 -5.2382,-2.53236 -9.737,-2.50833 -14.52655,0.0777 -7.24871,3.91367 -15.53446,13.46159 -16.93335,19.51281 -0.41411,1.79138 -0.40652,1.98035 0.20894,5.27483 0.61572,3.29517 0.68041,3.49336 1.81707,5.56383 1.18611,2.16058 3.71133,5.69282 4.73763,6.62689 0.53491,0.48683 1.06303,-0.0119 16.51734,-15.59812 z m -22.72385,-22.33033 2.55525,-2.58719 -8.92628,-8.75283 c -4.9094,-4.81411 -12.24605,-12.01264 -16.30357,-15.99679 -11.76121,-11.54858 -11.79661,-11.57946 -13.71696,-11.96745 -2.44462,-0.49389 -4.34102,1.29287 -3.89658,3.67141 0.3104,1.66122 1.33737,2.93344 6.23007,7.71792 2.58312,2.52598 10.59491,10.36974 17.80398,17.43058 7.20902,7.06089 13.24046,12.89048 13.4031,12.95474 0.16264,0.0643 1.44558,-1.04741 2.85096,-2.47035 z"
             id="path595"
             inkscape:transform-center-x="0.81450141"
             inkscape:transform-center-y="-1.1860964" /></g></g><text
         xml:space="preserve"
         transform="matrix(3.5073527,0,0,3.5073527,-1939.5594,-583.65479)"
         id="text384"
         style="font-size:20.1165px;white-space:pre;shape-inside:url(#rect386);fill:#6a5be1;fill-opacity:1"><tspan
           x="592.79492"
           y="191.47594"
           id="tspan2996"><tspan
             style="font-weight:bold;font-family:'Courier New';-inkscape-font-specification:'Courier New Bold'"
             id="tspan2994">VolDivAI</tspan></tspan></text></g></g></svg>
